<svg width="180" height="70" viewBox="0 0 180 70" fill="none" xmlns="http://www.w3.org/2000/svg">
<g id="tidal logo">
<g id="Group">
<path id="Vector" d="M33.1475 58.8255C33.2245 58.2121 32.9534 57.9038 32.3332 57.9038C32.022 57.9811 31.752 58.1734 31.5188 58.4796L31.1697 59.1703C29.9292 61.3993 28.4165 62.5508 26.6338 62.6271C24.1517 62.6271 22.9123 59.6709 22.9123 53.7552V28.7532H30.9376C31.4028 28.678 31.7118 28.4084 31.868 27.9465C31.7118 27.4856 31.4028 27.1795 30.9376 27.0248H22.9123V9.39823C22.8343 8.93739 22.6011 8.63232 22.214 8.47656C21.8258 8.47656 21.5168 8.66992 21.2836 9.05233C20.2752 12.2792 17.7541 15.6973 13.7235 19.3067C8.91445 23.6088 4.65186 26.144 0.930373 26.9109C0.465186 26.9883 0.156146 27.2568 0 27.7177C0.0780732 28.026 0.427234 28.3332 1.0464 28.6393C3.52848 28.6393 5.0791 28.8327 5.69826 29.2151C6.39658 29.8306 6.74466 32.0961 6.74466 36.0126L6.62864 53.7563C6.62864 56.1378 6.82165 58.2894 7.20985 60.208C8.44926 66.6596 12.2868 69.8865 18.7235 69.8865C20.273 69.8865 21.7857 69.6169 23.2593 69.0798C27.523 67.3912 30.7793 64.088 33.0293 59.1714C33.1063 59.0951 33.1453 58.9802 33.1453 58.8255" fill="currentColor"/>
<path id="Vector_2" d="M44.6781 18.8455C46.3067 18.7703 47.8942 18.347 49.4459 17.5779C52.5461 15.7346 54.0978 13.0093 54.0978 9.39785C54.0978 7.47933 53.5545 5.71119 52.4691 4.09774C50.5314 1.41009 47.9354 0.0651855 44.6781 0.0651855C43.0494 0.0651855 41.4597 0.488421 39.9102 1.33274C36.8078 3.17607 35.2583 5.86588 35.2583 9.39785C35.2583 11.4721 35.9154 13.3552 37.2351 15.0439C39.2509 17.579 41.7308 18.8465 44.6791 18.8465" fill="currentColor"/>
<path id="Vector_3" d="M60.1474 67.4655C59.449 67.313 58.7898 67.1207 58.1706 66.8898C55.4554 65.8145 54.0999 62.5511 54.0999 57.0963V25.5276C54.0999 25.3751 54.0598 25.1817 53.9839 24.9519C53.6727 24.4158 53.2466 24.3761 52.7044 24.8369C52.5482 24.9143 52.3563 25.0292 52.1232 25.1817C46.0758 29.8674 39.446 32.3252 32.2351 32.5561C31.6918 32.6335 31.3806 32.902 31.3047 33.3629C31.3047 33.7485 31.6138 34.0546 32.2351 34.2845C32.4672 34.3619 32.7382 34.4392 33.0494 34.5144C36.3058 35.5134 37.9344 39.3537 37.9344 46.0363V57.0973C37.9344 59.4015 37.7783 61.2448 37.4693 62.6273C36.8479 65.4697 34.9872 67.0831 31.8859 67.4666C31.4208 67.5439 31.1095 67.8114 30.9556 68.2733C31.0326 68.7342 31.3427 69.0424 31.8859 69.195H60.2645C60.6516 69.1198 60.9216 68.8115 61.0788 68.2733C61.0008 67.8898 60.6895 67.6213 60.1485 67.4666" fill="currentColor"/>
<path id="Vector_4" d="M111.741 65.5077H110.927C110.461 65.585 110.112 65.585 109.88 65.5077C108.329 65.2015 107.243 63.9727 106.624 61.821C106.081 60.055 105.81 57.7509 105.81 54.9085V0.986834C105.81 0.834298 105.769 0.680687 105.694 0.526002C105.383 -0.0873673 104.956 -0.16471 104.414 0.296123C104.258 0.373465 104.065 0.526002 103.833 0.756955C97.7854 5.36528 91.1156 7.78438 83.8287 8.01534C83.4405 8.09268 83.1684 8.36123 83.0144 8.82206C83.0914 9.2077 83.3635 9.51385 83.8287 9.74373C84.1378 9.82107 84.449 9.89841 84.7591 9.97361C88.0154 10.9726 89.6441 14.8129 89.6441 21.4955V29.0998C85.6895 25.9513 81.2306 24.4914 76.2686 24.7213C71.4606 25.0296 67.2729 26.9105 63.7075 30.3673C58.8225 35.2066 56.6137 41.2748 57.0789 48.5707C57.3901 53.2564 58.8637 57.4823 61.4976 61.2442C65.4522 66.7752 70.6072 69.6928 76.9659 70H79.0598C83.3234 69.6917 87.239 68.0417 90.8065 65.0458C92.9004 68.5026 96.6598 70.1149 102.088 69.8851C105.344 69.8851 108.678 68.9634 112.09 67.1201C112.399 66.9665 112.555 66.7366 112.555 66.4283C112.631 65.8138 112.361 65.5066 111.741 65.5066M85.8055 66.3133C85.4943 66.468 85.2243 66.5443 84.9912 66.5443C84.2148 66.5443 83.4394 66.3133 82.6652 65.8525C79.0196 63.703 75.8794 57.8271 73.2444 48.2249C72.468 45.3062 71.8868 42.5037 71.4997 39.8149C70.4912 31.7498 71.6536 27.2564 74.9891 26.3348C75.2981 26.2585 75.5703 26.2198 75.8034 26.2198C76.5777 26.2198 77.353 26.4497 78.1294 26.9105C81.7728 29.0622 84.9131 34.9381 87.5502 44.5382C88.3244 47.228 88.8677 49.7996 89.1789 52.2574C90.4183 60.7071 89.2949 65.3917 85.8066 66.3133" fill="currentColor"/>
<path id="Vector_5" d="M160.758 65.5066H159.943C159.478 65.5839 159.129 65.5839 158.897 65.5066C156.182 64.9706 154.321 61.705 153.315 55.7131L151.57 40.8505C149.709 29.4843 141.76 24.0693 127.727 24.6053C123.151 24.8352 119.43 25.9126 116.562 27.8311C112.684 30.5961 111.328 34.1678 112.491 38.5463C112.724 39.3928 113.111 40.1995 113.654 40.9654C115.437 43.117 117.841 43.8851 120.865 43.2696C123.733 42.6551 125.361 41.1577 125.75 38.7762C126.059 37.0102 125.362 35.3978 123.658 33.9369C122.106 32.6317 121.37 31.4791 121.448 30.4801V30.2502C121.603 27.6399 123.269 26.3326 126.449 26.3326C127.223 26.3326 127.998 26.4873 128.775 26.7935C132.108 28.0223 134.125 31.4791 134.822 37.1627C134.899 37.4699 134.938 37.8158 134.938 38.1993C135.171 40.8881 134.124 42.7325 131.798 43.7293C130.634 44.2675 129.007 44.7283 126.913 45.1118C120.865 46.1108 117.531 46.6866 116.911 46.8402C110.941 48.6083 107.955 52.4475 107.955 58.3621C107.955 60.1302 108.304 61.7813 109.001 63.3163C111.251 67.6948 116.172 69.884 123.772 69.884C128.579 69.884 132.688 68.6938 136.1 66.3123C137.65 65.237 138.426 64.5463 138.426 64.238C140.442 68.002 144.318 69.9205 150.057 69.9989C154.088 69.9989 157.771 69.0397 161.106 67.119C161.338 66.9654 161.493 66.7355 161.571 66.4272C161.647 65.8138 161.377 65.5055 160.756 65.5055M135.868 64.3551C133.93 66.0448 131.526 66.3531 128.657 65.2767C125.09 63.8942 123.307 61.053 123.307 56.7508C123.307 53.8322 124.471 51.3357 126.797 49.2615C127.262 48.878 129.162 47.648 132.496 45.5748C133.736 44.9603 134.744 44.1171 135.52 43.0397L137.497 60.0915C137.729 61.8597 137.186 63.2798 135.868 64.354" fill="currentColor"/>
<path id="Vector_6" d="M179.068 67.4662C178.37 67.3137 177.71 67.1214 177.091 66.8904C174.376 65.8152 173.02 62.5517 173.02 57.097V0.987113C173.02 0.680965 172.904 0.411341 172.672 0.181462C172.283 0.027851 171.934 0.0665222 171.625 0.296401C171.469 0.373744 171.277 0.489758 171.043 0.642294C164.996 5.32796 158.366 7.78573 151.155 8.01561C150.612 8.09296 150.263 8.36151 150.109 8.82234C150.186 9.20798 150.534 9.51412 151.155 9.744C151.387 9.82135 151.659 9.89869 151.97 9.97388C155.226 10.9729 156.855 14.8132 156.855 21.4958V57.097C156.855 59.4011 156.699 61.2444 156.39 62.6269C155.768 65.4693 153.907 67.0827 150.807 67.4662C150.342 67.5436 150.031 67.811 149.877 68.2729C149.953 68.7338 150.264 69.0421 150.807 69.1946H179.186C179.573 69.1194 179.844 68.8111 180 68.2729C179.922 67.8895 179.611 67.6209 179.07 67.4662" fill="currentColor"/>
</g>
</g>
</svg>
