<svg xmlns="http://www.w3.org/2000/svg" width="165" height="71" fill="none">
  <g clip-path="url(#a)">
    <mask id="b" width="165" height="71" x="0" y="0" maskUnits="userSpaceOnUse" style="mask-type:luminance">
      <path fill="#fff" d="M165 0H0v71h165V0Z"/>
    </mask>
    <g mask="url(#b)">
      <path fill="currentColor" d="M45.668 21.205c0-1.186-1.05-2.013-2.408-2.013-1.575 0-3.603.216-5.541.216-1.956 0-3.82-.216-5.396-.216-1.884 0-2.77.827-2.77 2.013 0 2.821 3.82 2.3 3.82 5.283 0 1.186-.38 2.534-1.267 4.762l-6.067 14.807-6.682-14.807c-.832-2.013-1.267-3.504-1.267-4.618 0-3.415 3.748-2.606 3.748-5.427 0-1.186-.978-2.013-2.933-2.013-1.956 0-4.201.216-8.022.216-4.056 0-6.519-.216-8.475-.216-1.358 0-2.408.755-2.408 2.013 0 2.677 3.296 1.869 6.302 7.96l13.725 27.98c-1.647 3.648-3.368 6.11-5.704 6.11-2.48 0-4.346-1.564-7.207-5.499-.67-.97-1.267-1.348-2.1-1.348-1.195 0-2.1 1.186-2.1 2.75 0 2.821 1.575 8.266 3.005 9.973C6.754 70.245 9.217 71 12.078 71c6.447 0 11.245-4.546 14.704-12.435l12.675-29.471c2.608-6.02 6.211-5.212 6.211-7.89Z"/>
    </g>
    <mask id="c" width="165" height="71" x="0" y="0" maskUnits="userSpaceOnUse" style="mask-type:luminance">
      <path fill="#fff" d="M165 0H0v71h165V0Z"/>
    </mask>
    <g mask="url(#c)">
      <path fill="currentColor" d="M79.222 42.607c-.67.108-1.213.485-2.317 1.636-2.481 2.641-5.216 4.492-9 5.067-5.342.809-9.923-1.797-12.893-5.786L76.054 33.37c1.285-.575 1.883-1.042 1.557-3.18-1.087-6.99-8.692-13.424-19.213-11.825-10.9 1.672-19.248 10.926-17.383 22.84 1.792 11.555 11.444 17.899 22.924 16.138 8.964-1.366 15.139-7.063 16.95-11.034.38-.97.525-1.51.416-2.174-.127-.63-.978-1.707-2.083-1.528Zm-27.578-7.08c-.96-6.182 1.612-10.567 6.066-11.25 4.22-.646 7.805 2.804 8.294 6.039.235 1.473-.363 2.012-1.43 2.551l-12.133 5.93a16.912 16.912 0 0 1-.797-3.27Z"/>
    </g>
    <mask id="d" width="165" height="71" x="0" y="0" maskUnits="userSpaceOnUse" style="mask-type:luminance">
      <path fill="#fff" d="M165 0H0v71h165V0Z"/>
    </mask>
    <g mask="url(#d)">
      <path fill="currentColor" d="M124.511 44.512V3.504c0-1.869-.453-3.504-2.318-3.504-.743 0-1.956.144-6.972 2.156-5.849 2.39-7.732 3.343-7.732 4.906 0 3.576 5.776 1.258 5.776 6.02v8.788c-2.625-2.229-6.301-3.648-10.882-3.648-11.318 0-19.955 8.482-19.955 20.396 0 11.986 7.641 19.048 17.021 19.048 6.374 0 11.028-3.198 13.798-7.296v3.36c0 1.492.218 3.649 2.318 3.649.743 0 1.883-.306 6.519-1.87 5.704-1.94 7.569-2.749 7.569-4.618.036-3.036-5.142-1.689-5.142-6.379Zm-11.246-5.068c0 6.398-3.965 10.423-8.619 10.423-5.179 0-10.267-5.589-10.267-14.43 0-7.224 3.44-11.609 8.692-11.609 5.396 0 10.194 5.661 10.194 13.173v2.443Z"/>
    </g>
    <mask id="e" width="165" height="71" x="0" y="0" maskUnits="userSpaceOnUse" style="mask-type:luminance">
      <path fill="#fff" d="M165 0H0v71h165V0Z"/>
    </mask>
    <g mask="url(#e)">
      <path fill="currentColor" d="M137.114 13.55c5.106 0 9.452-3.792 9.452-7.44 0-2.983-2.698-4.978-5.849-4.978-5.179 0-9.144 4.025-9.144 7.745 0 2.804 2.245 4.672 5.541 4.672Z"/>
    </g>
    <mask id="f" width="165" height="71" x="0" y="0" maskUnits="userSpaceOnUse" style="mask-type:luminance">
      <path fill="#fff" d="M165 0H0v71h165V0Z"/>
    </mask>
    <g mask="url(#f)">
      <path fill="currentColor" d="M145.371 47.783V22.319c0-2.156-.525-3.576-2.318-3.576-.833 0-1.72.216-6.682 2.372-5.323 2.39-7.207 3.342-7.207 4.996 0 3.342 4.944 1.186 4.944 5.948v15.706c0 5.498-4.419 3.863-4.419 6.846 0 1.043.743 2.085 2.554 2.085 1.792 0 3.748-.216 7.496-.216 3.749 0 5.777.216 7.57.216 1.72 0 2.48-1.114 2.48-2.085 0-2.965-4.418-1.33-4.418-6.828Z"/>
    </g>
    <mask id="g" width="165" height="71" x="0" y="0" maskUnits="userSpaceOnUse" style="mask-type:luminance">
      <path fill="#fff" d="M165 0H0v71h165V0Z"/>
    </mask>
    <g mask="url(#g)">
      <path fill="currentColor" d="M158.391 45.249c-4.491 0-7.57 2.893-7.57 6.325 0 3.504 2.554 5.66 6.519 5.66 4.491 0 7.642-2.91 7.642-6.325.018-3.504-2.698-5.66-6.591-5.66Z"/>
    </g>
  </g>
  <defs>
    <clipPath id="a">
      <path fill="#fff" d="M0 0h165v71H0z"/>
    </clipPath>
  </defs>
</svg>